<?xml version="1.0" encoding="UTF-8"?>
<svg version="1.1" xmlns="http://www.w3.org/2000/svg" width="410" height="424">
<path d="M0 0 C4.41187176 4.61201585 7.52630293 9.51506138 9.9296875 15.40234375 C11.22629213 18.54921266 12.67218962 21.60956916 14.125 24.6875 C17.23239005 31.3129026 20.2804158 37.96483241 23.3125 44.625 C23.7451416 45.57334717 24.1777832 46.52169434 24.62353516 47.4987793 C25.23720947 48.84903198 25.23720947 48.84903198 25.86328125 50.2265625 C26.40915894 51.42659912 26.40915894 51.42659912 26.96606445 52.65087891 C28.03507636 55.07969415 29.02827043 57.53083762 30 60 C30.66 60 31.32 60 32 60 C32.13728516 59.00033203 32.13728516 59.00033203 32.27734375 57.98046875 C33.20209759 54.16648401 34.8466696 50.81811204 36.5625 47.3125 C39.52633298 41.14872297 42.37716744 34.9504819 45.125 28.6875 C52.99058906 10.93926136 59.45501378 -2.66685747 78.375 -10.375 C95.59192685 -13.34343566 110.54762648 -11.78060658 125.26953125 -2.23046875 C127.44805935 -0.6814025 129.2944925 0.93917844 131 3 C131 3.66 131 4.32 131 5 C131.66 5 132.32 5 133 5 C136.00522595 10.98509939 137.7333823 16.25326131 138.25146484 22.92456055 C138.32716391 23.81158252 138.40286297 24.69860449 138.48085594 25.61250591 C139.48952003 39.31188837 139.14806942 53.08740871 139.00085878 66.81284928 C138.95961952 70.87661065 138.93089905 74.94046235 138.90072632 79.00431824 C138.8420157 86.66418361 138.77240344 94.32390757 138.69865549 101.98364133 C138.61509786 110.71908127 138.54402663 119.45460973 138.47388959 128.19016612 C138.3296032 146.12690826 138.17000886 164.06348411 138 182 C137.34 182.33 136.68 182.66 136 183 C133.69566846 182.02699137 131.56939828 180.9974973 129.375 179.8125 C128.71419434 179.45663818 128.05338867 179.10077637 127.37255859 178.73413086 C113.21758459 170.85083258 96.69948547 160.19644099 92 144 C90.7982767 139.71691105 90.82475656 135.52130463 90.79467773 131.10058594 C90.78477814 130.20267334 90.77487854 129.30476074 90.76467896 128.37963867 C90.73311589 125.41457752 90.70832701 122.44950034 90.68359375 119.484375 C90.66301974 117.42742499 90.64202315 115.37047916 90.62062073 113.3135376 C90.56544622 107.90160514 90.51601653 102.48963481 90.46777344 97.07763672 C90.4175247 91.55432773 90.36185623 86.03107368 90.30664062 80.5078125 C90.19911556 69.67192194 90.09765801 58.83598366 90 48 C88.55313607 50.72185175 87.10751527 53.44435159 85.66259766 56.16723633 C85.25513809 56.93344551 84.84767853 57.69965469 84.4278717 58.48908234 C81.59803838 63.82491715 78.90231381 69.20125807 76.375 74.6875 C75.62858925 76.28040988 74.88118375 77.872854 74.1328125 79.46484375 C73.77477539 80.22780762 73.41673828 80.99077148 73.04785156 81.77685547 C65.93529683 96.86700537 59.39966589 109.35649458 43.06640625 115.7578125 C32.03725748 119.013819 20.29534798 117.40464335 10.25 112.1875 C3.58572014 108.55332399 -0.44484601 103.84636909 -4.0625 97.25 C-4.40829102 96.63237793 -4.75408203 96.01475586 -5.11035156 95.37841797 C-7.33866917 91.34787747 -9.34998838 87.27859924 -11.125 83.03125 C-12.35223538 80.18231072 -13.80294154 77.46065542 -15.265625 74.7265625 C-16 73 -16 73 -16 70 C-16.66 70 -17.32 70 -18 70 C-18.89626987 68.0627019 -19.7919864 66.1251478 -20.6875 64.1875 C-21.18636719 63.10855469 -21.68523437 62.02960938 -22.19921875 60.91796875 C-23.68143431 57.70204591 -25.14787977 54.47907638 -26.61254883 51.25512695 C-27.06036209 50.269543 -27.50817535 49.28395905 -27.96955872 48.26850891 C-28.30960434 47.51990097 -28.64964996 46.77129303 -29 46 C-29.00586624 47.15765366 -29.01173248 48.31530731 -29.01777649 49.50804138 C-29.07509022 60.43946867 -29.1478971 71.37069869 -29.23571491 82.30192471 C-29.28036494 87.92123914 -29.319633 93.54048196 -29.34643555 99.15991211 C-29.3725219 104.58708944 -29.41296227 110.01399043 -29.46318626 115.44099617 C-29.4798189 117.50729995 -29.49135554 119.57365149 -29.49761391 121.64001274 C-29.50729417 124.54342212 -29.53540045 127.44613022 -29.56762695 130.34936523 C-29.56619186 131.19597717 -29.56475677 132.04258911 -29.5632782 132.91485596 C-29.71102022 142.38049135 -32.93497216 152.2176143 -39.125 159.5 C-41 161 -41 161 -43 161 C-43.33 161.99 -43.66 162.98 -44 164 C-45.88256836 165.54638672 -45.88256836 165.54638672 -48.33984375 167.1796875 C-49.23896484 167.77910156 -50.13808594 168.37851562 -51.06445312 168.99609375 C-52.01255859 169.61613281 -52.96066406 170.23617187 -53.9375 170.875 C-54.85080078 171.48730469 -55.76410156 172.09960938 -56.70507812 172.73046875 C-72.24131759 183 -72.24131759 183 -77 183 C-77.15411689 162.68522256 -77.30214353 142.37040939 -77.4429636 122.05553532 C-77.50849323 112.62253067 -77.57599921 103.18954798 -77.64819336 93.7565918 C-77.71112867 85.5327433 -77.7703196 77.30887773 -77.82505554 69.08497041 C-77.85415467 64.73239783 -77.88510071 60.37985641 -77.92053413 56.0273304 C-77.95386411 51.92590767 -77.98216606 47.8244802 -78.00670624 43.72299576 C-78.01655469 42.2222468 -78.02819874 40.72150832 -78.04183006 39.22078896 C-78.29209481 11.25449611 -78.29209481 11.25449611 -68.8125 1.125 C-49.35623662 -16.17883511 -20.06303251 -16.50523698 0 0 Z " fill="#1555CD" transform="translate(173,136)"/>
<path d="M0 0 C1.4375 1.75 1.4375 1.75 1.4375 3.75 C2.0975 3.75 2.7575 3.75 3.4375 3.75 C6.44272595 9.73509939 8.1708823 15.00326131 8.68896484 21.67456055 C8.76466391 22.56158252 8.84036297 23.44860449 8.91835594 24.36250591 C9.92702003 38.06188837 9.58556942 51.83740871 9.43835878 65.56284928 C9.39711952 69.62661065 9.36839905 73.69046235 9.33822632 77.75431824 C9.2795157 85.41418361 9.20990344 93.07390757 9.13615549 100.73364133 C9.05259786 109.46908127 8.98152663 118.20460973 8.91138959 126.94016612 C8.7671032 144.87690826 8.60750886 162.81348411 8.4375 180.75 C7.7775 181.08 7.1175 181.41 6.4375 181.75 C4.13316846 180.77699137 2.00689828 179.7474973 -0.1875 178.5625 C-1.1787085 178.02870728 -1.1787085 178.02870728 -2.18994141 177.48413086 C-16.34491541 169.60083258 -32.86301453 158.94644099 -37.5625 142.75 C-38.7642233 138.46691105 -38.73774344 134.27130463 -38.76782227 129.85058594 C-38.77772186 128.95267334 -38.78762146 128.05476074 -38.79782104 127.12963867 C-38.82938411 124.16457752 -38.85417299 121.19950034 -38.87890625 118.234375 C-38.89948026 116.17742499 -38.92047685 114.12047916 -38.94187927 112.0635376 C-38.99705378 106.65160514 -39.04648347 101.23963481 -39.09472656 95.82763672 C-39.1449753 90.30432773 -39.20064377 84.78107368 -39.25585938 79.2578125 C-39.36338444 68.42192194 -39.46484199 57.58598366 -39.5625 46.75 C-41.00782924 49.46969115 -42.45199682 52.18998853 -43.89550781 54.91064453 C-44.30237823 55.67597 -44.70924866 56.44129547 -45.12844849 57.22981262 C-47.9939533 62.63353825 -50.73877224 68.07561306 -53.3125 73.625 C-53.86635376 74.80606323 -53.86635376 74.80606323 -54.43139648 76.01098633 C-57.18806336 81.90273361 -59.90703435 87.81189842 -62.5625 93.75 C-63.44090996 90.65279155 -63.55685406 88.84354597 -62.5625 85.75 C-63.44808594 85.65203125 -64.33367187 85.5540625 -65.24609375 85.453125 C-72.53114999 83.90859011 -78.62417414 78.11161093 -83.5625 72.75 C-84.408125 71.96625 -85.25375 71.1825 -86.125 70.375 C-90.43209193 65.73659331 -92.93595383 61.17209823 -93.5625 54.75 C-95.0475 55.245 -95.0475 55.245 -96.5625 55.75 C-94.89101798 50.12403612 -92.77447444 45.01449734 -90.078125 39.80859375 C-88.13345175 35.88416293 -86.38438075 31.88512757 -84.625 27.875 C-71.24571941 -2.34742239 -71.24571941 -2.34742239 -54.5625 -10.25 C-50.875 -11.625 -50.875 -11.625 -47.5625 -12.25 C-46.93730469 -12.36988281 -46.31210937 -12.48976563 -45.66796875 -12.61328125 C-28.80198967 -15.21045428 -12.79667288 -11.23610301 0 0 Z " fill="#1CAFC0" transform="translate(302.5625,137.25)"/>
<path d="M0 0 C6.22660788 0.95793967 10.65831363 4.09767296 15.08203125 8.3203125 C17.24071112 11.34246431 18.08203125 12.59210432 18.08203125 16.3203125 C18.74203125 16.3203125 19.40203125 16.3203125 20.08203125 16.3203125 C21.39949458 18.90122017 22.71112742 21.48481708 24.01953125 24.0703125 C24.39271484 24.79992187 24.76589844 25.52953125 25.15039062 26.28125 C25.50810547 26.99023438 25.86582031 27.69921875 26.234375 28.4296875 C26.56429443 29.07905273 26.89421387 29.72841797 27.23413086 30.39746094 C28.74523907 33.82432194 29.20799935 36.96016109 29.22920227 40.68901062 C29.23635757 41.55657486 29.24351288 42.4241391 29.25088501 43.31799316 C29.25357391 44.26194946 29.25626282 45.20590576 29.2590332 46.1784668 C29.26889 47.67921501 29.26889 47.67921501 29.27894592 49.21028137 C29.29865768 52.52169878 29.31033729 55.83307087 29.3203125 59.14453125 C29.32438803 60.27701609 29.32846355 61.40950092 29.33266258 62.57630348 C29.35351498 68.57129356 29.36781992 74.56626081 29.37719727 80.5612793 C29.38825558 86.7438922 29.42265164 92.9261446 29.46236897 99.10863018 C29.48855218 103.87084102 29.49689068 108.63296621 29.50047874 113.39524269 C29.5053408 115.67372889 29.51694384 117.95221137 29.53551674 120.23062706 C29.55994209 123.42576798 29.55893651 126.61997927 29.55200195 129.81518555 C29.56481201 130.74902069 29.57762207 131.68285583 29.59082031 132.64498901 C29.54203507 138.83929934 28.43543963 144.0212114 25.08203125 149.3203125 C22.08041223 151.150568 20.58071135 151.3203125 17.08203125 151.3203125 C17.08203125 153.6303125 17.08203125 155.9403125 17.08203125 158.3203125 C15.76203125 158.6503125 14.44203125 158.9803125 13.08203125 159.3203125 C13.08203125 159.9803125 13.08203125 160.6403125 13.08203125 161.3203125 C7.45703125 164.3203125 7.45703125 164.3203125 4.08203125 164.3203125 C4.08203125 164.9803125 4.08203125 165.6403125 4.08203125 166.3203125 C3.17453125 166.6915625 2.26703125 167.0628125 1.33203125 167.4453125 C-2.37869016 169.58611331 -3.63314734 171.77489996 -5.91796875 175.3203125 C-6.90796875 175.3203125 -7.89796875 175.3203125 -8.91796875 175.3203125 C-9.24796875 176.3103125 -9.57796875 177.3003125 -9.91796875 178.3203125 C-11.56796875 178.6503125 -13.21796875 178.9803125 -14.91796875 179.3203125 C-15.03501062 158.42272392 -15.12305883 137.52518975 -15.17702961 116.62733936 C-15.20276045 106.92307866 -15.23781258 97.21902217 -15.29516602 87.51489258 C-15.34515829 79.05219414 -15.37729694 70.58964368 -15.38841122 62.12680167 C-15.39490332 57.64986223 -15.41005348 53.17334594 -15.44661903 48.69654274 C-15.48082932 44.47345467 -15.49097188 40.25095969 -15.48350716 36.0277462 C-15.48487063 34.48673136 -15.49465324 32.94569446 -15.51399612 31.40480042 C-15.63849277 20.96558811 -14.93429972 10.37373753 -7.98659229 1.98963642 C-5.37021128 -0.12171314 -3.30619207 -0.18401811 0 0 Z " fill="#114BC8" transform="translate(111.91796875,137.6796875)"/>
<path d="M0 0 C1.03973948 1.3025819 2.05177757 2.62936073 3 4 C2.2265625 3.93039063 1.453125 3.86078125 0.65625 3.7890625 C-6.12203489 3.43672591 -10.20429871 3.80205198 -15.3828125 8.3359375 C-17.42583541 10.43817847 -19.25252662 12.64763198 -21 15 C-21.66 15.33 -22.32 15.66 -23 16 C-24.04227156 17.840669 -25.01043838 19.72369805 -25.9375 21.625 C-26.46601563 22.7078125 -26.99453125 23.790625 -27.5390625 24.90625 C-29.11413624 28.24170028 -30.59205474 31.59129043 -32 35 C-32.495 35.99 -32.495 35.99 -33 37 C-33.09977032 38.35164714 -33.13935295 39.70800691 -33.14717102 41.06330872 C-33.15432632 41.91392883 -33.16148163 42.76454895 -33.16885376 43.64094543 C-33.17154266 44.57645737 -33.17423157 45.5119693 -33.17700195 46.47583008 C-33.18357315 47.45985809 -33.19014435 48.44388611 -33.19691467 49.45773315 C-33.21668996 52.72833327 -33.22832474 55.99888719 -33.23828125 59.26953125 C-33.24235678 60.38782507 -33.2464323 61.50611889 -33.25063133 62.6583004 C-33.27151821 68.58657014 -33.28580397 74.51481662 -33.29516602 80.44311523 C-33.30618661 86.54468287 -33.34052871 92.64588138 -33.38033772 98.74731922 C-33.40659983 103.45479469 -33.41486677 108.16218391 -33.41844749 112.86972618 C-33.4232951 115.11699582 -33.43485645 117.36426208 -33.45348549 119.61145973 C-34.22987703 136.91336015 -34.22987703 136.91336015 -29 153 C-26.02862279 154.70183262 -26.02862279 154.70183262 -23 156 C-21.64613064 157.65002828 -20.31321858 159.3174387 -19 161 C-17.01811655 162.36011609 -15.02048131 163.69791204 -13 165 C-12.67 165.66 -12.34 166.32 -12 167 C-10.6078125 167.433125 -10.6078125 167.433125 -9.1875 167.875 C-5.78559517 169.07567229 -4.41628673 170.41112136 -2 173 C-1.34 173 -0.68 173 0 173 C0 172.01 0 171.02 0 170 C0.66 170.33 1.32 170.66 2 171 C2 172.65 2 174.3 2 176 C3.65 176 5.3 176 7 176 C7.66433182 166.65190221 8.1598655 157.37877608 8 148 C8.33 148 8.66 148 9 148 C9 104.11 9 60.22 9 15 C9.33 15 9.66 15 10 15 C12.27549842 32.6047342 12.19077738 50.10545808 12.00085878 67.81284928 C11.95961952 71.87661065 11.93089905 75.94046235 11.90072632 80.00431824 C11.8420157 87.66418361 11.77240344 95.32390757 11.69865549 102.98364133 C11.61509786 111.71908127 11.54402663 120.45460973 11.47388959 129.19016612 C11.3296032 147.12690826 11.17000886 165.06348411 11 183 C10.34 183.33 9.68 183.66 9 184 C6.69566846 183.02699137 4.56939828 181.9974973 2.375 180.8125 C1.3837915 180.27870728 1.3837915 180.27870728 0.37255859 179.73413086 C-13.78241541 171.85083258 -30.30051453 161.19644099 -35 145 C-36.2017233 140.71691105 -36.17524344 136.52130463 -36.20532227 132.10058594 C-36.21522186 131.20267334 -36.22512146 130.30476074 -36.23532104 129.37963867 C-36.26688411 126.41457752 -36.29167299 123.44950034 -36.31640625 120.484375 C-36.33698026 118.42742499 -36.35797685 116.37047916 -36.37937927 114.3135376 C-36.43455378 108.90160514 -36.48398347 103.48963481 -36.53222656 98.07763672 C-36.5824753 92.55432773 -36.63814377 87.03107368 -36.69335938 81.5078125 C-36.80088444 70.67192194 -36.90234199 59.83598366 -37 49 C-38.44532924 51.71969115 -39.88949682 54.43998853 -41.33300781 57.16064453 C-41.73987823 57.92597 -42.14674866 58.69129547 -42.56594849 59.47981262 C-45.4314533 64.88353825 -48.17627224 70.32561306 -50.75 75.875 C-51.30385376 77.05606323 -51.30385376 77.05606323 -51.86889648 78.26098633 C-54.62556336 84.15273361 -57.34453435 90.06189842 -60 96 C-60.87840996 92.90279155 -60.99435406 91.09354597 -60 88 C-60.88558594 87.90203125 -61.77117187 87.8040625 -62.68359375 87.703125 C-69.96864999 86.15859011 -76.06167414 80.36161093 -81 75 C-81.845625 74.21625 -82.69125 73.4325 -83.5625 72.625 C-87.86959193 67.98659331 -90.37345383 63.42209823 -91 57 C-92.485 57.495 -92.485 57.495 -94 58 C-92.32851798 52.37403612 -90.21197444 47.26449734 -87.515625 42.05859375 C-85.57095175 38.13416293 -83.82188075 34.13512757 -82.0625 30.125 C-68.68321941 -0.09742239 -68.68321941 -0.09742239 -52 -8 C-48.3125 -9.375 -48.3125 -9.375 -45 -10 C-44.37480469 -10.11988281 -43.74960937 -10.23976563 -43.10546875 -10.36328125 C-28.10183996 -12.67367307 -11.78130596 -10.00535538 0 0 Z " fill="#22BEC8" transform="translate(300,135)"/>
<path d="M0 0 C0.66 1.32 1.32 2.64 2 4 C2.99 4 3.98 4 5 4 C5.67119549 5.4562545 6.33681807 6.91507867 7 8.375 C7.37125 9.18710938 7.7425 9.99921875 8.125 10.8359375 C9 13 9 13 9 15 C9.66 15 10.32 15 11 15 C11.39832031 16.03060547 11.39832031 16.03060547 11.8046875 17.08203125 C12.15789062 17.98308594 12.51109375 18.88414062 12.875 19.8125 C13.22304687 20.70582031 13.57109375 21.59914062 13.9296875 22.51953125 C14.98832155 25.17711591 14.98832155 25.17711591 17 28 C17 28.99 17 29.98 17 31 C17.66 31 18.32 31 19 31 C19.25394531 31.66386719 19.50789063 32.32773438 19.76953125 33.01171875 C23.40767135 42.46799858 23.40767135 42.46799858 30 50 C33.13350717 51.26784124 33.13350717 51.26784124 36 52 C35.505 52.99 35.505 52.99 35 54 C34.01 53.505 34.01 53.505 33 53 C32.814375 54.1446875 32.814375 54.1446875 32.625 55.3125 C32 58 32 58 30 61 C27.375 61.6875 27.375 61.6875 25 62 C25 62.66 25 63.32 25 64 C20.20999724 66.47384916 15.6363717 66.34520965 10.375 66.3125 C9.48288818 66.30903564 8.59077637 66.30557129 7.67163086 66.30200195 C-2.33351782 66.13723697 -10.96311512 64.54548148 -18.5625 57.6875 C-23.82560834 51.88458567 -25.65732548 47.71017668 -26 40 C-24.02 39.505 -24.02 39.505 -22 39 C-22 38.34 -22 37.68 -22 37 C-21.34 37 -20.68 37 -20 37 C-20 36.01 -20 35.02 -20 34 C-18.63875 33.4121875 -18.63875 33.4121875 -17.25 32.8125 C-13.77313631 30.87347986 -12.38364497 29.12853403 -10 26 C-8.989375 25.21625 -7.97875 24.4325 -6.9375 23.625 C-3.41396888 20.47631262 -2.61760757 18.36754044 -1 14 C-0.34 13.01 0.32 12.02 1 11 C1.66 11 2.32 11 3 11 C2.67 10.01 2.34 9.02 2 8 C1.01 8.495 1.01 8.495 0 9 C-1.3950848 6.70221327 -2.07438619 5.5207033 -1.6875 2.8125 C-1 1 -1 1 0 0 Z " fill="#113FC2" transform="translate(194,185)"/>
<path d="M0 0 C0.87527344 -0.00257813 1.75054687 -0.00515625 2.65234375 -0.0078125 C5.0625 0.125 5.0625 0.125 8.0625 1.125 C8.0625 1.785 8.0625 2.445 8.0625 3.125 C8.7225 3.125 9.3825 3.125 10.0625 3.125 C13.50822039 9.44215405 13.37711385 15.02870975 13.0625 22.125 C12.4025 22.125 11.7425 22.125 11.0625 22.125 C11.0625 21.465 11.0625 20.805 11.0625 20.125 C-2.99997541 22.96017649 -12.22401987 31.22718035 -20.23046875 43.03125 C-24.36877373 50.40429993 -25.21773257 56.5319772 -25.49609375 64.8828125 C-25.95668012 68.26588053 -26.64299203 69.66528745 -28.9375 72.125 C-30.16505699 68.29165196 -30.11669501 64.45572409 -30.140625 60.47265625 C-30.14632507 59.73550888 -30.15202515 58.99836151 -30.15789795 58.23887634 C-30.16732266 56.68310979 -30.17387186 55.12732351 -30.17773438 53.5715332 C-30.18745278 51.19902656 -30.21850379 48.82738217 -30.25 46.45507812 C-30.25652965 44.94010929 -30.26178027 43.42513428 -30.265625 41.91015625 C-30.2779718 41.2048024 -30.2903186 40.49944855 -30.30303955 39.77272034 C-30.28303913 35.32480886 -29.49370279 32.73804832 -26.9375 29.125 C-26.22690614 27.47771424 -25.51786856 25.82962081 -24.83203125 24.171875 C-23.04125685 20.07420781 -20.96563382 16.10912058 -18.9375 12.125 C-18.2775 12.125 -17.6175 12.125 -16.9375 12.125 C-16.69 11.54105469 -16.4425 10.95710937 -16.1875 10.35546875 C-14.75294436 7.79568353 -13.17045714 6.32976699 -10.9375 4.4375 C-10.23625 3.83550781 -9.535 3.23351562 -8.8125 2.61328125 C-5.739368 0.17398273 -3.86637283 -0.01135499 0 0 Z " fill="#07577B" transform="translate(295.9375,137.875)"/>
<path d="M0 0 C6.22660788 0.95793967 10.65831363 4.09767296 15.08203125 8.3203125 C17.24071112 11.34246431 18.08203125 12.59210432 18.08203125 16.3203125 C18.74203125 16.3203125 19.40203125 16.3203125 20.08203125 16.3203125 C21.39949458 18.90122017 22.71112742 21.48481708 24.01953125 24.0703125 C24.39271484 24.79992187 24.76589844 25.52953125 25.15039062 26.28125 C25.50810547 26.99023438 25.86582031 27.69921875 26.234375 28.4296875 C26.56429443 29.07905273 26.89421387 29.72841797 27.23413086 30.39746094 C29.31299935 35.11187736 29.21291423 39.72738327 29.1796875 44.8046875 C29.17827255 45.62028137 29.1768576 46.43587524 29.17539978 47.27618408 C29.16981428 49.87426462 29.15726446 52.47225813 29.14453125 55.0703125 C29.13951437 56.83463417 29.13495179 58.59895719 29.13085938 60.36328125 C29.1198496 64.68232506 29.10259494 69.00130404 29.08203125 73.3203125 C28.75203125 73.3203125 28.42203125 73.3203125 28.08203125 73.3203125 C28.00726563 72.05316406 27.9325 70.78601563 27.85546875 69.48046875 C27.18328348 57.38143033 27.18328348 57.38143033 21.421875 47.01171875 C19.91956297 45.11521406 19.59006693 43.65532265 19.08203125 41.3203125 C18.60765625 40.8459375 18.13328125 40.3715625 17.64453125 39.8828125 C16.08203125 38.3203125 16.08203125 38.3203125 15.14453125 35.6953125 C14.79390625 34.9115625 14.44328125 34.1278125 14.08203125 33.3203125 C12.1802434 32.71970017 12.1802434 32.71970017 10.08203125 32.3203125 C7.83203125 30.3828125 7.83203125 30.3828125 6.08203125 28.3203125 C6.08203125 27.6603125 6.08203125 27.0003125 6.08203125 26.3203125 C2.38603166 24.2276004 -0.72139166 23.94134752 -4.89453125 23.6640625 C-6.91796875 23.3203125 -6.91796875 23.3203125 -8.91796875 21.3203125 C-10.23796875 20.9903125 -11.55796875 20.6603125 -12.91796875 20.3203125 C-13.24796875 32.8603125 -13.57796875 45.4003125 -13.91796875 58.3203125 C-14.24796875 58.3203125 -14.57796875 58.3203125 -14.91796875 58.3203125 C-15.04289475 52.71939956 -15.13292463 47.11932257 -15.19262695 41.51733398 C-15.21755137 39.61745043 -15.25150399 37.71766054 -15.29516602 35.81811523 C-15.84166799 11.40555074 -15.84166799 11.40555074 -7.9855957 2.0090332 C-5.3710741 -0.1263601 -3.31875548 -0.18471737 0 0 Z " fill="#060F78" transform="translate(111.91796875,137.6796875)"/>
<path d="M0 0 C0.66 0 1.32 0 2 0 C2.20753906 0.6290625 2.41507813 1.258125 2.62890625 1.90625 C4.74994228 7.79900281 7.23275231 11.91929229 11.609375 16.40625 C13 18 13 18 13 20 C13.55945313 20.2578125 14.11890625 20.515625 14.6953125 20.78125 C17.27999943 22.14806749 19.51989021 23.76851741 21.875 25.5 C25.48668416 28.06985219 28.62944989 29.96486971 33 31 C32.96821369 38.75586027 31.36954681 43.37836179 26 49 C16.62717404 57.95625592 6.7337016 61.42160561 -6.01953125 61.1953125 C-16.49088359 60.50911641 -16.49088359 60.50911641 -20 57 C-19.05382812 57.16242188 -18.10765625 57.32484375 -17.1328125 57.4921875 C-12.38258652 58.16874208 -7.66495441 58.1462258 -2.875 58.125 C-1.99457031 58.12886719 -1.11414063 58.13273437 -0.20703125 58.13671875 C3.98745282 58.13039223 7.91208826 58.06862423 12 57 C11.67 56.01 11.34 55.02 11 54 C12.3921875 53.9690625 12.3921875 53.9690625 13.8125 53.9375 C14.864375 53.628125 15.91625 53.31875 17 53 C18.80765878 49.56016568 18.80765878 49.56016568 20 46 C20.66 45.67 21.32 45.34 22 45 C20.02 44.34 18.04 43.68 16 43 C16 42.34 16 41.68 16 41 C15.401875 40.773125 14.80375 40.54625 14.1875 40.3125 C8.59703315 36.95821989 7.61342937 29.89302216 6 24 C5.34 24 4.68 24 4 24 C3.18082358 22.27398621 2.36993984 20.5440353 1.5625 18.8125 C1.11003906 17.84957031 0.65757812 16.88664062 0.19140625 15.89453125 C-0.90381422 13.23368414 -1.54954796 10.83215245 -2 8 C-2.66 8 -3.32 8 -4 8 C-4 7.34 -4 6.68 -4 6 C-3.34 5.67 -2.68 5.34 -2 5 C-1.27840576 3.35636866 -0.60648579 1.68949614 0 0 Z " fill="#0B5D80" transform="translate(207,192)"/>
<path d="M0 0 C0.33 0 0.66 0 1 0 C3.27549842 17.6047342 3.19077738 35.10545808 3.00085878 52.81284928 C2.95961952 56.87661065 2.93089905 60.94046235 2.90072632 65.00431824 C2.8420157 72.66418361 2.77240344 80.32390757 2.69865549 87.98364133 C2.61509786 96.71908127 2.54402663 105.45460973 2.47388959 114.19016612 C2.3296032 132.12690826 2.17000886 150.06348411 2 168 C1.34 168.33 0.68 168.66 0 169 C-2.30433154 168.02699137 -4.43060172 166.9974973 -6.625 165.8125 C-7.28580566 165.45663818 -7.94661133 165.10077637 -8.62744141 164.73413086 C-22.78241541 156.85083258 -39.30051453 146.19644099 -44 130 C-45.2017233 125.71691105 -45.17524344 121.52130463 -45.20532227 117.10058594 C-45.21522186 116.20267334 -45.22512146 115.30476074 -45.23532104 114.37963867 C-45.26688411 111.41457752 -45.29167299 108.44950034 -45.31640625 105.484375 C-45.33698026 103.42742499 -45.35797685 101.37047916 -45.37937927 99.3135376 C-45.43455378 93.90160514 -45.48398347 88.48963481 -45.53222656 83.07763672 C-45.5824753 77.55432773 -45.63814377 72.03107368 -45.69335938 66.5078125 C-45.80088444 55.67192194 -45.90234199 44.83598366 -46 34 C-46.99 34.99 -47.98 35.98 -49 37 C-48.44271087 33.65626525 -47.64826111 30.96687001 -46 28 C-45.01 28 -44.02 28 -43 28 C-42.99635437 29.18635544 -42.99270874 30.37271088 -42.98895264 31.59501648 C-42.95188155 42.81954714 -42.89397716 54.04380652 -42.81609726 65.2681303 C-42.77672418 71.03756981 -42.74448591 76.80685901 -42.72900391 82.57641602 C-42.71377027 88.15279057 -42.67920622 93.72875159 -42.63169098 99.30494118 C-42.61694612 101.42375897 -42.60896298 103.54263582 -42.60811615 105.66150475 C-43.13526993 122.41725203 -43.13526993 122.41725203 -38 138 C-35.03048395 139.70785569 -35.03048395 139.70785569 -32 141 C-30.64613064 142.65002828 -29.31321858 144.3174387 -28 146 C-26.01811655 147.36011609 -24.02048131 148.69791204 -22 150 C-21.505 150.99 -21.505 150.99 -21 152 C-20.071875 152.28875 -19.14375 152.5775 -18.1875 152.875 C-14.78559517 154.07567229 -13.41628673 155.41112136 -11 158 C-10.34 158 -9.68 158 -9 158 C-9 157.01 -9 156.02 -9 155 C-8.34 155.33 -7.68 155.66 -7 156 C-7 157.65 -7 159.3 -7 161 C-5.35 161 -3.7 161 -2 161 C-1.33566818 151.65190221 -0.8401345 142.37877608 -1 133 C-0.67 133 -0.34 133 0 133 C0 89.11 0 45.22 0 0 Z " fill="#83DFE0" transform="translate(309,150)"/>
<path d="M0 0 C0.66 1.32 1.32 2.64 2 4 C2.99 4 3.98 4 5 4 C5.67595315 5.41225926 6.34040059 6.83002905 7 8.25 C7.37125 9.03890625 7.7425 9.8278125 8.125 10.640625 C9 13 9 13 9 17 C8.34 17 7.68 17 7 17 C6.88269531 17.72832031 6.76539063 18.45664063 6.64453125 19.20703125 C5.99187197 22.03522145 5.05013724 24.13519185 3.6875 26.6875 C1.88424677 30.15449976 0.35429481 33.5851124 -1 37.25 C-3.66803628 44.05882858 -7.48748827 48.41147313 -14 52 C-17.375 52.75 -17.375 52.75 -20 53 C-20.66 51.68 -21.32 50.36 -22 49 C-22.99 49 -23.98 49 -25 49 C-25.33 46.03 -25.66 43.06 -26 40 C-24.02 39.505 -24.02 39.505 -22 39 C-22 38.34 -22 37.68 -22 37 C-21.34 37 -20.68 37 -20 37 C-20 36.01 -20 35.02 -20 34 C-18.63875 33.4121875 -18.63875 33.4121875 -17.25 32.8125 C-13.77313631 30.87347986 -12.38364497 29.12853403 -10 26 C-8.989375 25.21625 -7.97875 24.4325 -6.9375 23.625 C-3.41396888 20.47631262 -2.61760757 18.36754044 -1 14 C-0.34 13.01 0.32 12.02 1 11 C1.66 11 2.32 11 3 11 C2.67 10.01 2.34 9.02 2 8 C1.01 8.495 1.01 8.495 0 9 C-1.3950848 6.70221327 -2.07438619 5.5207033 -1.6875 2.8125 C-1 1 -1 1 0 0 Z " fill="#05127F" transform="translate(194,185)"/>
<path d="M0 0 C0.99 0.33 1.98 0.66 3 1 C2.93869212 13.62231938 2.86151591 26.24443366 2.76428509 38.86653042 C2.71962727 44.72798211 2.68036087 50.58936502 2.65356445 56.45092773 C2.62748595 62.11151786 2.58705098 67.77184269 2.53681374 73.43226814 C2.52017583 75.58788812 2.50864245 77.74355395 2.50238609 79.89922905 C2.49271167 82.9271591 2.46461192 85.95441509 2.43237305 88.98217773 C2.43380814 89.86619263 2.43524323 90.75020752 2.4367218 91.66101074 C2.29323796 101.23898969 -0.8517148 111.11966447 -7.125 118.5 C-9 120 -9 120 -11 120 C-11.33 120.99 -11.66 121.98 -12 123 C-13.94604492 124.59399414 -13.94604492 124.59399414 -16.48046875 126.28515625 C-17.39763672 126.89810547 -18.31480469 127.51105469 -19.25976562 128.14257812 C-20.70899414 129.09293945 -20.70899414 129.09293945 -22.1875 130.0625 C-23.13431641 130.69994141 -24.08113281 131.33738281 -25.05664062 131.99414062 C-29.65292752 135.03801799 -33.68401007 137.40631748 -39 139 C-38.67 138.01 -38.34 137.02 -38 136 C-37.01 136 -36.02 136 -35 136 C-34.7525 135.236875 -34.505 134.47375 -34.25 133.6875 C-32.85815317 130.69502931 -31.81442085 129.65554168 -29 128 C-26.75 127.3125 -26.75 127.3125 -25 127 C-25 126.34 -25 125.68 -25 125 C-22.03 124.01 -19.06 123.02 -16 122 C-16 121.34 -16 120.68 -16 120 C-14.02 119.505 -14.02 119.505 -12 119 C-12.185625 118.21625 -12.37125 117.4325 -12.5625 116.625 C-13 114 -13 114 -12 112 C-9.09740189 110.6250851 -7.23861295 110 -4 110 C-3.87625 109.2575 -3.7525 108.515 -3.625 107.75 C-3 105 -3 105 -1.97834206 103.09783554 C-0.89256155 100.76962229 -0.74059533 99.23977369 -0.7215271 96.68463135 C-0.71036362 95.82930313 -0.69920013 94.97397491 -0.68769836 94.09272766 C-0.68553818 93.16268417 -0.68337799 92.23264069 -0.68115234 91.27441406 C-0.66608391 89.79587196 -0.66608391 89.79587196 -0.65071106 88.28746033 C-0.61982631 85.0301878 -0.60282906 81.77299767 -0.5859375 78.515625 C-0.56723013 76.25688973 -0.54765704 73.99816149 -0.5272522 71.73944092 C-0.47587959 65.79486221 -0.43628121 59.85026082 -0.39910889 53.90557861 C-0.35910146 47.83933887 -0.30799423 41.77319385 -0.2578125 35.70703125 C-0.16099243 23.80475399 -0.07660703 11.90242331 0 0 Z " fill="#7699D1" transform="translate(141,177)"/>
<path d="M0 0 C1.03973948 1.3025819 2.05177757 2.62936073 3 4 C2.2265625 3.93039063 1.453125 3.86078125 0.65625 3.7890625 C-6.12203489 3.43672591 -10.20429871 3.80205198 -15.3828125 8.3359375 C-17.42583541 10.43817847 -19.25252662 12.64763198 -21 15 C-21.99 15.495 -21.99 15.495 -23 16 C-24.53650537 18.96193806 -25.95754337 21.95132056 -27.34570312 24.984375 C-28.15901416 26.69215174 -29.07421115 28.35048758 -30 30 C-30.99 30.33 -31.98 30.66 -33 31 C-30.90143748 25.5787135 -28.60048066 20.20096132 -26 15 C-25.34 15 -24.68 15 -24 15 C-23.7215625 13.700625 -23.7215625 13.700625 -23.4375 12.375 C-21.79045781 8.50803139 -19.99300008 6.93403678 -16.75390625 4.39453125 C-15.02285724 3.0181738 -13.46289912 1.65974182 -12 0 C-12 -0.66 -12 -1.32 -12 -2 C-24.2318594 -7.52406554 -38.1110155 -7.31513746 -50.73828125 -3.08203125 C-53.18865047 -2.11155118 -55.59594287 -1.07954206 -58 0 C-59.33279308 0.56377889 -60.66606719 1.12642311 -62 1.6875 C-63.68233076 2.42351971 -65.35757209 3.17878604 -67 4 C-64.56521252 -2.33044744 -57.4873998 -5.43434401 -51.58984375 -8.08203125 C-34.81355184 -14.08835798 -13.76337662 -11.68864256 0 0 Z " fill="#3DDEDC" transform="translate(300,135)"/>
<path d="M0 0 C0 0.33 0 0.66 0 1 C-0.77077881 0.97381592 -1.54155762 0.94763184 -2.33569336 0.9206543 C-5.86941683 0.8159337 -9.40281272 0.75143491 -12.9375 0.6875 C-14.14986328 0.64560547 -15.36222656 0.60371094 -16.61132812 0.56054688 C-24.45683196 0.45423924 -29.61103259 1.37971482 -36 6 C-39 8 -39 8 -42.25 8.625 C-48.13963238 10.78453187 -51.32801915 14.76024066 -54.17929459 20.28509235 C-57.45296389 28.49735882 -57.57765564 36.41876552 -57.54589844 45.11987305 C-57.55464932 46.71754454 -57.56514034 48.3152073 -57.57722473 49.91285706 C-57.60492013 54.2179242 -57.60849308 58.52270304 -57.60750484 62.82784629 C-57.6106482 67.33889344 -57.63629584 71.84981345 -57.65948486 76.36079407 C-57.69993991 84.88859104 -57.72036082 93.41631175 -57.73345876 101.94418985 C-57.74936447 111.65895945 -57.78779505 121.37359993 -57.82805204 131.08829439 C-57.91030725 151.05882025 -57.96448906 171.02933987 -58 191 C-56.35 190.67 -54.7 190.34 -53 190 C-53.495 190.99 -53.495 190.99 -54 192 C-56.5625 192.625 -56.5625 192.625 -59 193 C-59.15411689 172.68522256 -59.30214353 152.37040939 -59.4429636 132.05553532 C-59.50849323 122.62253067 -59.57599921 113.18954798 -59.64819336 103.7565918 C-59.71112867 95.5327433 -59.7703196 87.30887773 -59.82505554 79.08497041 C-59.85415467 74.73239783 -59.88510071 70.37985641 -59.92053413 66.0273304 C-59.95386411 61.92590767 -59.98216606 57.8244802 -60.00670624 53.72299576 C-60.01655469 52.2222468 -60.02819874 50.72150832 -60.04183006 49.22078896 C-60.29209481 21.25449611 -60.29209481 21.25449611 -50.8125 11.125 C-36.10939331 -1.95151571 -18.64765728 -3.97060383 0 0 Z " fill="#8FAEE5" transform="translate(155,126)"/>
<path d="M0 0 C0.80679199 0.00483398 1.61358398 0.00966797 2.44482422 0.01464844 C21.89609643 0.20850206 21.89609643 0.20850206 29.5625 5.125 C30.15546875 5.47433594 30.7484375 5.82367188 31.359375 6.18359375 C36.98708369 9.78184112 42.60710931 15.30343724 44.2578125 21.90625 C44.35835938 22.6384375 44.45890625 23.370625 44.5625 24.125 C42.85409719 22.49087557 41.62796953 21.25593906 40.5625 19.125 C38.66716658 18.65976937 38.66716658 18.65976937 36.5 18.5 C35.200625 18.37625 33.90125 18.2525 32.5625 18.125 C31.9375 15.75 31.9375 15.75 31.5625 13.125 C32.2225 12.465 32.8825 11.805 33.5625 11.125 C32.964375 10.856875 32.36625 10.58875 31.75 10.3125 C29.56528087 9.12650961 28.26779205 7.90443518 26.5625 6.125 C17.78426008 0.27284005 1.46354484 1.45475938 -8.59765625 3.28515625 C-12.759374 4.5159256 -15.26603858 6.17480333 -18.4375 9.125 C-18.7675 9.785 -19.0975 10.445 -19.4375 11.125 C-18.65375 11.434375 -17.87 11.74375 -17.0625 12.0625 C-14.4375 13.125 -14.4375 13.125 -12.4375 14.125 C-12.4375 14.785 -12.4375 15.445 -12.4375 16.125 C-11.7775 16.125 -11.1175 16.125 -10.4375 16.125 C-6.4375 20.59558824 -6.4375 20.59558824 -6.4375 23.125 C-7.4275 22.795 -8.4175 22.465 -9.4375 22.125 C-9.4375 21.465 -9.4375 20.805 -9.4375 20.125 C-10.035625 19.856875 -10.63375 19.58875 -11.25 19.3125 C-13.4375 18.125 -13.4375 18.125 -14.8125 16.625 C-18.71843226 13.01952407 -24.36352452 12.73387706 -29.4375 12.125 C-27.09505987 9.31407185 -25.69766345 8.19863116 -22.125 7.1875 C-18.29264027 6.08326076 -16.09285587 4.66905357 -13.015625 2.24609375 C-9.07118992 -0.55601731 -4.61262842 -0.02836213 0 0 Z " fill="#2F6BC3" transform="translate(136.4375,125.875)"/>
<path d="M0 0 C0.99 0 1.98 0 3 0 C3 33.66 3 67.32 3 102 C0.74077197 97.48154393 0.69369478 94.01195928 0.68115234 89.10058594 C0.67110672 88.20267334 0.6610611 87.30476074 0.65071106 86.37963867 C0.61984391 83.41455723 0.60283403 80.44956624 0.5859375 77.484375 C0.5672287 75.42742126 0.54765551 73.37047522 0.5272522 71.3135376 C0.4758946 65.90161677 0.43628821 60.48967105 0.39910889 55.07763672 C0.35909204 49.55429915 0.30798911 44.03106546 0.2578125 38.5078125 C0.16101022 27.67194793 0.07661913 16.83602476 0 6 C-0.99 6.99 -1.98 7.98 -3 9 C-2.44271087 5.65626525 -1.64826111 2.96687001 0 0 Z " fill="#AAD2D9" transform="translate(263,178)"/>
<path d="M0 0 C1.03973948 1.3025819 2.05177757 2.62936073 3 4 C-1.24392091 2.0260833 -4.93342979 -0.66554727 -8.7578125 -3.34375 C-16.491079 -7.29423795 -24.8557434 -7.29761284 -33.375 -7.1875 C-34.34566406 -7.18685547 -35.31632812 -7.18621094 -36.31640625 -7.18554688 C-40.38889821 -7.16026934 -44.06537985 -7.13509545 -48 -6 C-48 -5.34 -48 -4.68 -48 -4 C-48.96099609 -3.61908203 -48.96099609 -3.61908203 -49.94140625 -3.23046875 C-58.57556948 0.14466007 -58.57556948 0.14466007 -67 4 C-64.56521252 -2.33044744 -57.4873998 -5.43434401 -51.58984375 -8.08203125 C-34.81355184 -14.08835798 -13.76337662 -11.68864256 0 0 Z " fill="#94DFDF" transform="translate(300,135)"/>
<path d="M0 0 C0.99 0.33 1.98 0.66 3 1 C2.18208984 1.60134766 2.18208984 1.60134766 1.34765625 2.21484375 C-9.46091527 10.36284382 -18.22954285 18.67225363 -22 32 C-22.31577052 35.58939143 -22.43857005 39.15710141 -22.55859375 42.7578125 C-23.01918012 46.14088053 -23.70549203 47.54028745 -26 50 C-27.36752652 41.2478303 -26.70757095 32.77387981 -26 24 C-25.34 24 -24.68 24 -24 24 C-21.28629463 21.28629463 -18.9195536 18.35041362 -16.7578125 15.17578125 C-12.45287748 8.98591705 -6.81141416 3.40570708 0 0 Z " fill="#0A698E" transform="translate(293,160)"/>
<path d="M0 0 C0 3.4474944 -0.83658904 4.92161958 -2.4375 7.9375 C-4.03424944 10.95358227 -5.32300241 13.64613839 -6 17 C-6.66 17 -7.32 17 -8 17 C-8.12117188 17.65226562 -8.24234375 18.30453125 -8.3671875 18.9765625 C-9.28943989 23.78646342 -10.30167277 28.39025465 -12 33 C-12.66 33 -13.32 33 -14 33 C-14.33548767 34.79126452 -14.66832355 36.58302587 -15 38.375 C-15.185625 39.37273437 -15.37125 40.37046875 -15.5625 41.3984375 C-16.05527983 43.88903545 -16.05527983 43.88903545 -16 46 C-16.66 46 -17.32 46 -18 46 C-18.66 47.32 -19.32 48.64 -20 50 C-20.99 49.34 -21.98 48.68 -23 48 C-23 48.99 -23 49.98 -23 51 C-23.66 51 -24.32 51 -25 51 C-23.95165474 47.37844365 -22.59193308 44.09137145 -20.875 40.75 C-18.41734791 35.9506912 -16.22829212 31.0602412 -14.0625 26.125 C-5.34609154 6.36276279 -5.34609154 6.36276279 0 0 Z " fill="#67BFC8" transform="translate(232,139)"/>
<path d="M0 0 C0.66 0.33 1.32 0.66 2 1 C1.99777939 1.65066437 1.99555878 2.30132874 1.99327087 2.97171021 C1.97112264 9.75261892 1.95605355 16.53351733 1.94506836 23.31445312 C1.94004411 25.84407977 1.93322362 28.37370351 1.92456055 30.90332031 C1.91241147 34.54232499 1.90675254 38.18129122 1.90234375 41.8203125 C1.89718246 42.94865509 1.89202118 44.07699768 1.88670349 45.23953247 C1.88662796 46.30017914 1.88655243 47.36082581 1.88647461 48.45361328 C1.884254 49.38182892 1.88203339 50.31004456 1.87974548 51.26638794 C1.94456576 54.09566449 1.94456576 54.09566449 2.56959534 57.22164917 C3 60 3 60 2 62 C3.32 62 4.64 62 6 62 C6 60.35 6 58.7 6 57 C7.32 57 8.64 57 10 57 C9.34 58.98 8.68 60.96 8 63 C7.01 63 6.02 63 5 63 C4.67 63.99 4.34 64.98 4 66 C1.525 66.495 1.525 66.495 -1 67 C-1.12150482 44.63937372 -0.94663506 22.34411216 0 0 Z " fill="#1C6DD5" transform="translate(98,250)"/>
<path d="M0 0 C1.2077558 3.62326739 0.54311128 4.64146369 -1 8 C-0.01 8 0.98 8 2 8 C2 8.66 2 9.32 2 10 C2.99 10 3.98 10 5 10 C5 11.32 5 12.64 5 14 C6.32 14 7.64 14 9 14 C9 14.66 9 15.32 9 16 C6.23723823 15.47731534 3.6739124 14.89130413 1 14 C1 14.99 1 15.98 1 17 C-0.67299959 16.34938905 -2.33859237 15.67966676 -4 15 C-4.66 14.731875 -5.32 14.46375 -6 14.1875 C-10.99437666 11.22208886 -13.6909621 7.22571734 -16 2 C-15.34 2 -14.68 2 -14 2 C-13.01 3.485 -13.01 3.485 -12 5 C-7.00088076 4.52389341 -4.02167317 2.96837781 0 0 Z " fill="#182DA6" transform="translate(186,232)"/>
<path d="M0 0 C0 0.33 0 0.66 0 1 C-0.77077881 0.97381592 -1.54155762 0.94763184 -2.33569336 0.9206543 C-5.86941683 0.8159337 -9.40281272 0.75143491 -12.9375 0.6875 C-14.14986328 0.64560547 -15.36222656 0.60371094 -16.61132812 0.56054688 C-24.45683196 0.45423924 -29.61103259 1.37971482 -36 6 C-39 8 -39 8 -42.25 8.625 C-48.25855133 10.82813549 -51.40324058 14.89331401 -54.29296875 20.515625 C-57.13728566 27.53913678 -57.76071722 34.47455663 -58 42 C-58.66 42 -59.32 42 -60 42 C-59.82965667 30.66442572 -58.89885548 19.88043927 -50.8125 11.125 C-36.10939331 -1.95151571 -18.64765728 -3.97060383 0 0 Z " fill="#A7B9DD" transform="translate(155,126)"/>
<path d="M0 0 C0.66 0.33 1.32 0.66 2 1 C1.91621094 2.134375 1.83242187 3.26875 1.74609375 4.4375 C1.64282913 5.95830622 1.53998716 7.47914119 1.4375 9 C1.35338867 10.11568359 1.35338867 10.11568359 1.26757812 11.25390625 C0.69038759 19.85372247 0.69038759 19.85372247 3 28 C2.7009375 29.08796875 2.401875 30.1759375 2.09375 31.296875 C0.21017025 38.29393133 0.56833593 45.60005755 0.43359375 52.796875 C0.40394531 53.9209375 0.37429687 55.045 0.34375 56.203125 C0.32505859 57.22051758 0.30636719 58.23791016 0.28710938 59.28613281 C-0.00015675 62.00148168 -0.61095177 63.67521568 -2 66 C-2.12609814 50.11551485 -1.98168943 34.25356857 -1.5625 18.375 C-1.54285187 17.57211548 -1.52320374 16.76923096 -1.50296021 15.9420166 C-1.44601788 13.65647757 -1.38239047 11.37123132 -1.31640625 9.0859375 C-1.29968872 8.3975882 -1.28297119 7.70923889 -1.26574707 7.00003052 C-1.11505298 2.23010596 -1.11505298 2.23010596 0 0 Z " fill="#162FA7" transform="translate(99,158)"/>
<path d="M0 0 C0.33 0 0.66 0 1 0 C1.01030746 0.80908813 1.02061493 1.61817627 1.03123474 2.45178223 C1.12948589 10.10175283 1.23203776 17.7516483 1.33933926 25.40149689 C1.3943455 29.33371864 1.44772792 33.26594806 1.49731445 37.19824219 C1.54528933 40.99787877 1.59764055 44.79743283 1.65294075 48.5969696 C1.67321533 50.04170152 1.69195143 51.48645593 1.70907402 52.93122864 C1.72209119 63.5195477 1.72209119 63.5195477 3 74 C3.66 74.33 4.32 74.66 5 75 C5.66666667 77 6.33333333 79 7 81 C7.66 81.33 8.32 81.66 9 82 C9 82.66 9 83.32 9 84 C6.64300537 83.35014343 6.64300537 83.35014343 4 82 C-0.90528109 73.04471731 -0.53547207 62.54999152 -0.390625 52.63671875 C-0.38314273 51.10830942 -0.37745923 49.57989034 -0.37347412 48.0514679 C-0.35837352 44.07455853 -0.31923164 40.09825564 -0.2746582 36.12158203 C-0.23336418 32.0453308 -0.21539109 27.96897929 -0.1953125 23.89257812 C-0.15271764 15.92811049 -0.084662 7.96413118 0 0 Z " fill="#37ADB8" transform="translate(266,206)"/>
<path d="M0 0 C0.66 0.33 1.32 0.66 2 1 C1.21625 1.7425 0.4325 2.485 -0.375 3.25 C-3.00302798 5.72323885 -3.00302798 5.72323885 -4.0625 8.1875 C-5 10 -5 10 -6.875 10.8125 C-9.32739616 12.18295668 -9.69036008 13.0511625 -10.9375 15.5 C-12.40346953 18.30928823 -12.80513927 18.89814098 -15.75 20.4375 C-16.4925 20.623125 -17.235 20.80875 -18 21 C-16.22944428 13.86718981 -13.27455973 8.19633533 -8 3 C-4.6875 1.5 -4.6875 1.5 -2 1 C-1.34 0.67 -0.68 0.34 0 0 Z " fill="#45D0CE" transform="translate(244,133)"/>
<path d="M0 0 C0.66 0.66 1.32 1.32 2 2 C0.29374499 4.78388975 -0.47626739 5.85384206 -3.6875 6.75 C-4.8321875 6.87375 -4.8321875 6.87375 -6 7 C-6 7.66 -6 8.32 -6 9 C-10.8520996 11.53678236 -15.54209123 11.29684839 -20.875 11.25 C-21.74769531 11.25773438 -22.62039062 11.26546875 -23.51953125 11.2734375 C-28.73322552 11.25775722 -33.0653261 10.69419322 -38 9 C-38 8.01 -38 7.02 -38 6 C-36.7625 6.33 -35.525 6.66 -34.25 7 C-26.43614818 8.73778093 -17.820908 8.79229142 -10 7 C-8.66209359 6.00612666 -7.32781878 5.0073108 -6 4 C-3.75 4.3125 -3.75 4.3125 -2 5 C-1.34 3.35 -0.68 1.7 0 0 Z " fill="#182399" transform="translate(225,240)"/>
<path d="M0 0 C4.00378677 4.38167226 5.98682944 9.14133594 8.1875 14.5625 C8.72020508 15.83770508 8.72020508 15.83770508 9.26367188 17.13867188 C10.75085583 20.73669758 12.13366447 24.19640523 13 28 C11.68 27.67 10.36 27.34 9 27 C8.67 25.68 8.34 24.36 8 23 C7.34 23 6.68 23 6 23 C4.28783521 19.87214917 3.32506137 16.82301329 2.4375 13.375 C1.48326684 9.5878775 1.48326684 9.5878775 0 6 C-0.039992 4.00039988 -0.04346799 1.99952758 0 0 Z " fill="#7897CF" transform="translate(181,150)"/>
<path d="M0 0 C0.66 0 1.32 0 2 0 C2.02465746 4.1117256 2.04283959 8.22342278 2.05493164 12.33520508 C2.0599708 13.73495228 2.06680216 15.1346942 2.07543945 16.53442383 C2.0875232 18.54245777 2.09269807 20.55052957 2.09765625 22.55859375 C2.10289307 23.76829834 2.10812988 24.97800293 2.11352539 26.22436523 C2 29 2 29 1 30 C0.84126045 32.21687994 0.74866163 34.43855298 0.68359375 36.66015625 C0.66281265 37.32462265 0.64203156 37.98908905 0.62062073 38.6736908 C0.55506342 40.80318543 0.49621215 42.93280668 0.4375 45.0625 C0.39432061 46.50326847 0.35070651 47.94402399 0.30664062 49.38476562 C0.19937607 52.9230404 0.09812629 56.46145869 0 60 C-0.33 60 -0.66 60 -1 60 C-1.02533211 52.09798872 -1.04285934 44.1959879 -1.05493164 36.29394531 C-1.05939946 33.60513148 -1.06636119 30.91634118 -1.07543945 28.22753906 C-1.08755371 24.3652275 -1.09323945 20.50295208 -1.09765625 16.640625 C-1.10539818 14.83419525 -1.10539818 14.83419525 -1.11329651 12.99127197 C-1.11340981 11.30998199 -1.11340981 11.30998199 -1.11352539 9.59472656 C-1.115746 8.60877502 -1.11796661 7.62282349 -1.12025452 6.60699463 C-1.01134079 4.2458566 -0.67399991 2.25666764 0 0 Z " fill="#2154B3" transform="translate(98,220)"/>
<path d="M0 0 C0.33 0 0.66 0 1 0 C1.0994991 5.53176738 1.17176423 11.06300426 1.21972656 16.59545898 C1.2397382 18.47413213 1.26695637 20.3527438 1.30175781 22.23120117 C1.3507397 24.94465373 1.37307329 27.65727696 1.390625 30.37109375 C1.41127014 31.19959335 1.43191528 32.02809296 1.45318604 32.88169861 C1.45551059 39.03807606 -0.13465459 43.576383 -3 49 C-3.33 49 -3.66 49 -4 49 C-3.125 41.25 -3.125 41.25 -2 39 C-1.85527338 36.33841034 -1.76585038 33.69879123 -1.71875 31.03515625 C-1.70034058 30.24604355 -1.68193115 29.45693085 -1.66296387 28.64390564 C-1.60414242 26.11684707 -1.55136529 23.58972047 -1.5 21.0625 C-1.43234452 17.74074231 -1.35864535 14.41919964 -1.28125 11.09765625 C-1.26767456 10.33195816 -1.25409912 9.56626007 -1.2401123 8.77735901 C-1.16590155 5.60755376 -1.00931282 3.02793847 0 0 Z " fill="#1E61C3" transform="translate(140,238)"/>
<path d="M0 0 C0.66 1.32 1.32 2.64 2 4 C2.99 4 3.98 4 5 4 C5.66 5.65 6.32 7.3 7 9 C6.01 9 5.02 9 4 9 C3.855625 9.61875 3.71125 10.2375 3.5625 10.875 C3 13 3 13 2 15 C1.34 15 0.68 15 0 15 C-0.0928125 16.0209375 -0.0928125 16.0209375 -0.1875 17.0625 C-1.54545696 21.97203671 -4.21581593 25.84028035 -8.5 28.625 C-9.325 29.07875 -10.15 29.5325 -11 30 C-11.845625 30.86625 -12.69125 31.7325 -13.5625 32.625 C-15.88362818 34.88661207 -16.86111862 35.6512354 -20 36 C-20 35.34 -20 34.68 -20 34 C-18.63875 33.4121875 -18.63875 33.4121875 -17.25 32.8125 C-13.77313631 30.87347986 -12.38364497 29.12853403 -10 26 C-8.989375 25.21625 -7.97875 24.4325 -6.9375 23.625 C-3.41396888 20.47631262 -2.61760757 18.36754044 -1 14 C-0.34 13.01 0.32 12.02 1 11 C1.66 11 2.32 11 3 11 C2.67 10.01 2.34 9.02 2 8 C1.01 8.495 1.01 8.495 0 9 C-1.3950848 6.70221327 -2.07438619 5.5207033 -1.6875 2.8125 C-1 1 -1 1 0 0 Z " fill="#1633A3" transform="translate(194,185)"/>
<path d="M0 0 C9.03774074 0.96689054 16.55930082 6.74527911 22.1875 13.6875 C24.49612056 16.76004366 25.44684009 19.19452641 26 23 C24.29159719 21.36587557 23.06546953 20.13093906 22 18 C20.10466658 17.53476937 20.10466658 17.53476937 17.9375 17.375 C16.638125 17.25125 15.33875 17.1275 14 17 C13.375 14.625 13.375 14.625 13 12 C13.66 11.34 14.32 10.68 15 10 C14.401875 9.731875 13.80375 9.46375 13.1875 9.1875 C11.00278087 8.00150961 9.70529205 6.77943518 8 5 C5.08235 3.0549 3.37462715 2.54723683 0 2 C0 1.34 0 0.68 0 0 Z " fill="#6C9ADC" transform="translate(155,127)"/>
<path d="M0 0 C0 0.99 0 1.98 0 3 C-12.8118202 10.48926254 -23.47833311 13.04346159 -38.2578125 9.6328125 C-40 9 -40 9 -42 7 C-41.05382812 7.16242188 -40.10765625 7.32484375 -39.1328125 7.4921875 C-34.38258652 8.16874208 -29.66495441 8.1462258 -24.875 8.125 C-23.99457031 8.12886719 -23.11414063 8.13273438 -22.20703125 8.13671875 C-18.01254718 8.13039223 -14.08791174 8.06862423 -10 7 C-10.33 6.01 -10.66 5.02 -11 4 C-9.1128125 3.566875 -9.1128125 3.566875 -7.1875 3.125 C-4.1460601 2.42696461 -2.69330122 1.79553415 0 0 Z " fill="#9AA1D5" transform="translate(229,242)"/>
<path d="M0 0 C0.66 0 1.32 0 2 0 C2.16148939 5.08691575 2.14205406 7.7042453 -1.29296875 11.6015625 C-3.80029007 13.82950669 -6.33978457 15.95776565 -9 18 C-9 13.98905773 -7.23899001 12.25671275 -5 9 C-4.67 8.01 -4.34 7.02 -4 6 C-3.34 6 -2.68 6 -2 6 C-1.34 4.02 -0.68 2.04 0 0 Z M-12 18 C-11.34 18.33 -10.68 18.66 -10 19 C-11.65 20.65 -13.3 22.3 -15 24 C-15.66 23.67 -16.32 23.34 -17 23 C-15.35 21.35 -13.7 19.7 -12 18 Z " fill="#05178C" transform="translate(198,194)"/>
<path d="M0 0 C0.95465783 2.16967689 1.14401212 3.56328793 0.3984375 5.82421875 C-0.35870385 7.5684743 -1.17609198 9.28627131 -2 11 C-2.66 11 -3.32 11 -4 11 C-4.99 14.3 -5.98 17.6 -7 21 C-8.32 20.67 -9.64 20.34 -11 20 C-9.02 15.545 -9.02 15.545 -7 11 C-6.34 11 -5.68 11 -5 11 C-5.66 9.35 -6.32 7.7 -7 6 C-6.34 5.34 -5.68 4.68 -5 4 C-3.68 4 -2.36 4 -1 4 C-0.67 2.68 -0.34 1.36 0 0 Z " fill="#28A5B5" transform="translate(256,188)"/>
<path d="M0 0 C-1.10745382 2.71829574 -2.17577904 4.16353572 -4.35546875 6.19140625 C-7.33315401 9.35382235 -8.86990918 12.33354734 -10.625 16.25 C-11.67047669 18.57642111 -12.7629044 20.76032929 -14 23 C-14.99 23.33 -15.98 23.66 -17 24 C-14.90143748 18.5787135 -12.60048066 13.20096132 -10 8 C-9.34 8 -8.68 8 -8 8 C-7.731875 7.05125 -7.46375 6.1025 -7.1875 5.125 C-5.64389621 1.06288476 -4.37965286 0 0 0 Z " fill="#34CCD4" transform="translate(284,142)"/>
<path d="M0 0 C0.33 0.66 0.66 1.32 1 2 C1.99 2 2.98 2 4 2 C4 4.31 4 6.62 4 9 C4.99 9 5.98 9 7 9 C7.33 10.65 7.66 12.3 8 14 C8.99 13.34 9.98 12.68 11 12 C11.99 12.33 12.98 12.66 14 13 C13.34 13 12.68 13 12 13 C12 13.66 12 14.32 12 15 C11.01 15.33 10.02 15.66 9 16 C9 17.98 9 19.96 9 22 C3.76801303 17.76458198 1.72291652 9.30514131 0 3 C0 2.01 0 1.02 0 0 Z " fill="#4B57B1" transform="translate(160,209)"/>
<path d="M0 0 C-1.65 0.66 -3.3 1.32 -5 2 C-4.34 2.66 -3.68 3.32 -3 4 C-3.96099609 4.38091797 -3.96099609 4.38091797 -4.94140625 4.76953125 C-13.57556948 8.14466007 -13.57556948 8.14466007 -22 12 C-20.50115053 8.02059848 -18.25287411 6.56536515 -14.6875 4.375 C-13.74261719 3.78460938 -12.79773438 3.19421875 -11.82421875 2.5859375 C-4.35009894 -1.61114776 -4.35009894 -1.61114776 0 0 Z " fill="#82DEDC" transform="translate(255,127)"/>
<path d="M0 0 C-1.70407382 1.27653929 -3.41347351 2.5459704 -5.125 3.8125 C-6.07632813 4.52019531 -7.02765625 5.22789062 -8.0078125 5.95703125 C-10.93153579 7.95325485 -13.74332171 9.61152951 -17 11 C-17.66 10.67 -18.32 10.34 -19 10 C-18.67 9.34 -18.34 8.68 -18 8 C-17.01 8 -16.02 8 -15 8 C-14.7525 7.236875 -14.505 6.47375 -14.25 5.6875 C-12.83617937 2.64778565 -11.90919965 1.61622203 -9 0 C-5.37824817 -0.88695963 -3.56435101 -1.188117 0 0 Z " fill="#2D77CF" transform="translate(121,305)"/>
<path d="M0 0 C2.16154208 4.32308416 2.26009056 7.37211133 2.1953125 12.046875 C2.1924826 12.81807678 2.18965271 13.58927856 2.18673706 14.3838501 C2.17557013 16.83939332 2.15047229 19.2945676 2.125 21.75 C2.11496568 23.41796347 2.10584061 25.08593268 2.09765625 26.75390625 C2.07564225 30.83607897 2.04113667 34.917977 2 39 C1.67 39 1.34 39 1 39 C0.91697632 37.94087402 0.91697632 37.94087402 0.83227539 36.86035156 C0.57916858 33.65661463 0.32089096 30.45331489 0.0625 27.25 C-0.02451172 26.13882812 -0.11152344 25.02765625 -0.20117188 23.8828125 C-0.28818359 22.81289063 -0.37519531 21.74296875 -0.46484375 20.640625 C-0.543396 19.65610352 -0.62194824 18.67158203 -0.70288086 17.65722656 C-0.96123909 15.3466506 -1.3677328 13.23262117 -2 11 C-1.34 11 -0.68 11 0 11 C0 7.37 0 3.74 0 0 Z " fill="#4AC2C9" transform="translate(308,248)"/>
<path d="M0 0 C0.66 0.33 1.32 0.66 2 1 C1.51853516 2.01900391 1.51853516 2.01900391 1.02734375 3.05859375 C-0.53944913 7.54450645 -0.40254177 12.00585941 -0.55859375 16.72265625 C-1.01735356 20.12884634 -1.6880692 21.52777533 -4 24 C-5.7459892 15.59268242 -4.0847919 8.92719778 -1 1 C-0.67 0.67 -0.34 0.34 0 0 Z " fill="#17809F" transform="translate(271,186)"/>
<path d="M0 0 C0.33 0 0.66 0 1 0 C1.23074219 0.91523438 1.46148437 1.83046875 1.69921875 2.7734375 C2.02535156 3.96195312 2.35148437 5.15046875 2.6875 6.375 C3.00074219 7.55835938 3.31398438 8.74171875 3.63671875 9.9609375 C4.69875618 13.19840113 4.69875618 13.19840113 7.609375 14.26953125 C8.79273438 14.63111328 8.79273438 14.63111328 10 15 C10.5625 17.3125 10.5625 17.3125 11 20 C12.96509909 22.7700997 12.96509909 22.7700997 15 25 C9.11070189 22.40449278 3.80115944 17.33016439 1 11.5 C-0.17155714 7.39955 -0.22329673 4.24263796 0 0 Z " fill="#87E0E0" transform="translate(266,275)"/>
<path d="M0 0 C0.66 0 1.32 0 2 0 C4.125 4.625 4.125 4.625 3 8 C2.1028125 8.1546875 2.1028125 8.1546875 1.1875 8.3125 C-2.22256598 9.38423502 -3.18630506 12.06056337 -5 15 C-5.33 15 -5.66 15 -6 15 C-6.63934602 9.88523181 -4.40533547 6.32745622 -2 2 C-1.34 2 -0.68 2 0 2 C0 1.34 0 0.68 0 0 Z " fill="#1D53BF" transform="translate(203,200)"/>
<path d="M0 0 C1 3 1 3 -0.546875 6.6171875 C-1.27109606 8.04166642 -2.00594254 9.46078119 -2.75 10.875 C-3.1109375 11.58269531 -3.471875 12.29039062 -3.84375 13.01953125 C-5.76810206 16.76365101 -7.78149753 20.41950551 -10 24 C-11.3609623 21.2780754 -10.70366248 19.8168043 -10.0625 16.875 C-9.86785156 15.96492187 -9.67320312 15.05484375 -9.47265625 14.1171875 C-9.31667969 13.41851562 -9.16070312 12.71984375 -9 12 C-8.01 11.67 -7.02 11.34 -6 11 C-4.76049958 8.90861544 -4.76049958 8.90861544 -3.8125 6.4375 C-3.46832031 5.61121094 -3.12414062 4.78492188 -2.76953125 3.93359375 C-2.51558594 3.29550781 -2.26164063 2.65742188 -2 2 C-1.34 2 -0.68 2 0 2 C0 1.34 0 0.68 0 0 Z " fill="#88BEC8" transform="translate(254,197)"/>
<path d="M0 0 C2.55375615 3.17494007 4.37447153 6.48103661 6.1875 10.125 C6.71730469 11.17945313 7.24710938 12.23390625 7.79296875 13.3203125 C9 16 9 16 9 18 C9.66 18 10.32 18 11 18 C11.33 17.01 11.66 16.02 12 15 C11.67 16.65 11.34 18.3 11 20 C10.01 20 9.02 20 8 20 C7.74605469 19.43410156 7.49210938 18.86820313 7.23046875 18.28515625 C6.88628906 17.55167969 6.54210937 16.81820312 6.1875 16.0625 C5.85105469 15.33160156 5.51460937 14.60070312 5.16796875 13.84765625 C4.06399866 11.66970511 4.06399866 11.66970511 1 11 C-0.47666292 7.50970582 -0.07164685 3.72563614 0 0 Z " fill="#7B92C6" transform="translate(194,178)"/>
<path d="M0 0 C2 1.8125 2 1.8125 4 4 C4 4.99 4 5.98 4 7 C4.66 7 5.32 7 6 7 C6.33 5.02 6.66 3.04 7 1 C7.33 1 7.66 1 8 1 C9.19148936 21.53191489 9.19148936 21.53191489 9 31 C8.67 31 8.34 31 8 31 C7.92523438 29.73285156 7.85046875 28.46570313 7.7734375 27.16015625 C7.08279813 14.99971242 7.08279813 14.99971242 1.2421875 4.59375 C0 3 0 3 0 0 Z " fill="#0F2095" transform="translate(132,180)"/>
<path d="M0 0 C1.15941038 3.47823115 0.70820884 5.45895578 0 9 C-0.99 9 -1.98 9 -3 9 C-3.17015625 9.70125 -3.3403125 10.4025 -3.515625 11.125 C-5.07268862 17.22073842 -6.98006321 22.48080518 -10 28 C-11.57159226 24.85681547 -10.04018399 22.07066611 -9.0625 18.875 C-8.86720703 18.21628906 -8.67191406 17.55757812 -8.47070312 16.87890625 C-7.98695014 15.25066448 -7.49430925 13.62506818 -7 12 C-6.34 12 -5.68 12 -5 12 C-4.67 10.68 -4.34 9.36 -4 8 C-3.34 8 -2.68 8 -2 8 C-1.855625 6.865625 -1.71125 5.73125 -1.5625 4.5625 C-1 1 -1 1 0 0 Z " fill="#3EB3BF" transform="translate(266,169)"/>
<path d="M0 0 C0.33 0.66 0.66 1.32 1 2 C1.99 2 2.98 2 4 2 C4 3.32 4 4.64 4 6 C5.32 6 6.64 6 8 6 C8 6.66 8 7.32 8 8 C5.23723823 7.47731534 2.6739124 6.89130413 0 6 C0 6.99 0 7.98 0 9 C-4.875 7.25 -4.875 7.25 -6 5 C-5.01 5 -4.02 5 -3 5 C-3.66 4.34 -4.32 3.68 -5 3 C-4.34 3 -3.68 3 -3 3 C-3 2.34 -3 1.68 -3 1 C-2.01 0.67 -1.02 0.34 0 0 Z " fill="#2839B5" transform="translate(187,240)"/>
<path d="M0 0 C0.66 0 1.32 0 2 0 C-1.36102985 7.28223133 -4.6408562 10.96346008 -12 14 C-11.40138258 11.64828869 -10.73075648 9.3140622 -10 7 C-8 6 -8 6 -5 5 C-3.84188612 3.94729537 -3.84188612 3.94729537 -3 2 C-2.34 2 -1.68 2 -1 2 C-0.67 1.34 -0.34 0.68 0 0 Z " fill="#5871AC" transform="translate(237,231)"/>
<path d="M0 0 C0.66 0 1.32 0 2 0 C2.33 0.99 2.66 1.98 3 3 C0.94766315 5.2477975 -0.00667261 6.0022242 -3 7 C-4.1539808 8.59924507 -4.1539808 8.59924507 -5.0625 10.5 C-6.79642366 13.89821183 -6.79642366 13.89821183 -9 15 C-8.59046923 9.77848267 -7.81259261 6.70045754 -4 3 C-3.01 3 -2.02 3 -1 3 C-0.67 2.01 -0.34 1.02 0 0 Z " fill="#31D2D0" transform="translate(238,138)"/>
<path d="M0 0 C0.598125 0.226875 1.19625 0.45375 1.8125 0.6875 C1.8125 1.3475 1.8125 2.0075 1.8125 2.6875 C2.4725 3.0175 3.1325 3.3475 3.8125 3.6875 C2.8225 3.6875 1.8325 3.6875 0.8125 3.6875 C0.4825 4.3475 0.1525 5.0075 -0.1875 5.6875 C-0.1875 5.0275 -0.1875 4.3675 -0.1875 3.6875 C-4.06702544 6.31698691 -4.06702544 6.31698691 -6 10.4375 C-6.0928125 11.55125 -6.0928125 11.55125 -6.1875 12.6875 C-6.8475 12.6875 -7.5075 12.6875 -8.1875 12.6875 C-8.5175 14.0075 -8.8475 15.3275 -9.1875 16.6875 C-8.64849309 10.43501979 -7.57509891 5.9055681 -3.75 0.75 C-2.1875 -0.3125 -2.1875 -0.3125 0 0 Z " fill="#090E5C" transform="translate(108.1875,138.3125)"/>
<path d="M0 0 C0.33 0 0.66 0 1 0 C1 11.22 1 22.44 1 34 C2.65 34 4.3 34 6 34 C5.67 34.66 5.34 35.32 5 36 C2.525 36.495 2.525 36.495 0 37 C0 24.79 0 12.58 0 0 Z " fill="#2C6FBE" transform="translate(97,280)"/>
<path d="M0 0 C3.18086438 3.03627964 4.94688022 4.99072415 5.1875 9.5625 C5 13 5 13 4 15 C2.68 14.34 1.36 13.68 0 13 C0.33 12.01 0.66 11.02 1 10 C0.69208308 8.328451 0.35613097 6.66194453 0 5 C-0.0370279 3.3337447 -0.04759962 1.66598681 0 0 Z " fill="#2265C6" transform="translate(176,144)"/>
<path d="M0 0 C-2.98650645 1.66913294 -5.56606786 2.36590855 -8.9375 2.875 C-13.25068345 3.67656507 -15.8750332 4.77422782 -19 8 C-19.33 8.66 -19.66 9.32 -20 10 C-21.65 10 -23.3 10 -25 10 C-24 7 -24 7 -22.2578125 5.90234375 C-21.55398437 5.58394531 -20.85015625 5.26554688 -20.125 4.9375 C-17.53773626 3.74888621 -15.39289013 2.59526008 -13 1 C-8.61999466 0.29354753 -4.44157811 -0.13879932 0 0 Z " fill="#1F6ED9" transform="translate(137,127)"/>
<path d="M0 0 C3.94120709 0.56302958 6.7508723 1.6791945 10 4 C10 4.66 10 5.32 10 6 C10.61875 6.12375 11.2375 6.2475 11.875 6.375 C14 7 14 7 16 9 C12.21760329 8.34309381 8.78158474 7.279869 5.1875 5.9375 C4.21167969 5.57527344 3.23585937 5.21304688 2.23046875 4.83984375 C1.49441406 4.56269531 0.75835937 4.28554687 0 4 C0 2.68 0 1.36 0 0 Z " fill="#2970CA" transform="translate(156,129)"/>
<path d="M0 0 C0.66 0 1.32 0 2 0 C4.8352113 5.5522888 5.37952295 9.80112515 5 16 C0.28929101 10.9853743 0 6.6915297 0 0 Z " fill="#1E526C" transform="translate(304,141)"/>
<path d="M0 0 C0.99 0.33 1.98 0.66 3 1 C3 4.63 3 8.26 3 12 C3.99 11.67 4.98 11.34 6 11 C6 13.31 6 15.62 6 18 C1.4070292 14.47872239 0.88058083 10.42252403 0 5 C-0.99 5.33 -1.98 5.66 -3 6 C-2.67 5.01 -2.34 4.02 -2 3 C-1.34 3 -0.68 3 0 3 C0 2.01 0 1.02 0 0 Z " fill="#3799B0" transform="translate(209,187)"/>
<path d="M0 0 C2.4375 0.375 2.4375 0.375 5 1 C5.33 1.66 5.66 2.32 6 3 C6.99 3.33 7.98 3.66 9 4 C10.16796875 5.7421875 10.16796875 5.7421875 11.1875 7.875 C11.53167969 8.57367188 11.87585938 9.27234375 12.23046875 9.9921875 C13 12 13 12 13 15 C10.89837342 13.18495886 10.01249752 12.03499305 9.0625 9.375 C8.711875 8.59125 8.36125 7.8075 8 7 C6.09821215 6.39938767 6.09821215 6.39938767 4 6 C1.75 4.0625 1.75 4.0625 0 2 C0 1.34 0 0.68 0 0 Z " fill="#081496" transform="translate(118,164)"/>
<path d="M0 0 C0.66 0.99 1.32 1.98 2 3 C-1.04121408 7.60526704 -3.12455097 10.31850303 -8 13 C-8.845625 13.86625 -9.69125 14.7325 -10.5625 15.625 C-12.88362818 17.88661207 -13.86111862 18.6512354 -17 19 C-17 18.34 -17 17.68 -17 17 C-16.0925 16.608125 -15.185 16.21625 -14.25 15.8125 C-10.77313631 13.87347986 -9.38364497 12.12853403 -7 9 C-5.9550955 8.12439648 -4.89163012 7.2705577 -3.8125 6.4375 C-0.7063307 3.77046857 -0.7063307 3.77046857 0 0 Z " fill="#0E22A6" transform="translate(191,202)"/>
<path d="M0 0 C1.5 1.3125 1.5 1.3125 3 3 C3 3.99 3 4.98 3 6 C3.66 6 4.32 6 5 6 C5.69685498 7.6210103 6.38222861 9.24696066 7.0625 10.875 C7.44535156 11.77992188 7.82820312 12.68484375 8.22265625 13.6171875 C9 16 9 16 8 18 C6 17 6 17 4.875 14.6875 C4 12 4 12 4 8 C3.34 8 2.68 8 2 8 C0.74335022 5.09399739 0 3.20395416 0 0 Z " fill="#125AB7" transform="translate(208,210)"/>
<path d="M0 0 C0.33 0.66 0.66 1.32 1 2 C1.66 2 2.32 2 3 2 C4.42258812 5.82320557 5.24042276 8.91281305 5 13 C4.34 13 3.68 13 3 13 C2.29819469 11.5903653 1.61406042 10.17192359 0.9375 8.75 C0.55464844 7.96109375 0.17179688 7.1721875 -0.22265625 6.359375 C-1.08564091 3.74006478 -0.93045933 2.55144824 0 0 Z " fill="#6079BE" transform="translate(152,193)"/>
<path d="M0 0 C0.33 0.66 0.66 1.32 1 2 C3.52733235 2.65555119 3.52733235 2.65555119 6 3 C5.67 5.64 5.34 8.28 5 11 C0.07692308 6.81538462 0.07692308 6.81538462 -0.3125 2.6875 C-0.209375 1.800625 -0.10625 0.91375 0 0 Z " fill="#1D60D3" transform="translate(136,158)"/>
<path d="M0 0 C0 3.4474944 -0.83658904 4.92161958 -2.4375 7.9375 C-4.31299694 11.46262488 -4.31299694 11.46262488 -5.53125 15.23828125 C-6 17 -6 17 -8.0625 18.25 C-8.701875 18.4975 -9.34125 18.745 -10 19 C-8.46655215 11.94613988 -5.14375476 5.14375476 0 0 Z " fill="#9BDCDF" transform="translate(232,139)"/>
<path d="M0 0 C1.76462683 3.08809695 2 4.23312136 2 8 C2.66 8.33 3.32 8.66 4 9 C4.66666667 11 5.33333333 13 6 15 C6.66 15.33 7.32 15.66 8 16 C8 16.66 8 17.32 8 18 C5.6875 17.5 5.6875 17.5 3 16 C-0.10504029 10.9300514 -0.31010277 5.7885851 0 0 Z " fill="#36D3D1" transform="translate(267,272)"/>
<path d="M0 0 C0.66 0.33 1.32 0.66 2 1 C0.90344712 2.31886772 -0.20253423 3.62990057 -1.3125 4.9375 C-1.92738281 5.66839844 -2.54226562 6.39929688 -3.17578125 7.15234375 C-5 9 -5 9 -8 10 C-8.66 8.68 -9.32 7.36 -10 6 C-9.01 6 -8.02 6 -7 6 C-7 5.34 -7 4.68 -7 4 C-1.7265625 0.77734375 -1.7265625 0.77734375 0 0 Z " fill="#051393" transform="translate(179,218)"/>
<path d="M0 0 C2.21368294 2.21368294 3.86552921 3.93016625 4.265625 7.11328125 C4.25166986 9.07746787 4.13286356 11.0402625 4 13 C0.50071836 10.66714557 0.3670902 9.79204931 -0.6875 5.875 C-0.93886719 4.96492187 -1.19023437 4.05484375 -1.44921875 3.1171875 C-1.72185547 2.06917969 -1.72185547 2.06917969 -2 1 C-1.34 0.67 -0.68 0.34 0 0 Z " fill="#6786C7" transform="translate(147,181)"/>
<path d="M0 0 C5.77717073 -0.60812323 10.99680072 1.18275596 16 4 C16.33 4.99 16.66 5.98 17 7 C16.14921875 6.51660156 16.14921875 6.51660156 15.28125 6.0234375 C12.85544332 4.93514752 11.13690614 4.74239651 8.5 4.625 C5.09639983 4.3278158 4.20399675 4.16419251 1.4375 1.9375 C0.963125 1.298125 0.48875 0.65875 0 0 Z " fill="#081193" transform="translate(101,157)"/>
<path d="M0 0 C0.66 0 1.32 0 2 0 C2.66 0.99 3.32 1.98 4 3 C6.58380177 3.25030977 6.58380177 3.25030977 9 3 C9.144375 3.94875 9.28875 4.8975 9.4375 5.875 C9.82935399 8.8934494 9.82935399 8.8934494 11 11 C8 11 8 11 5.5 8.875 C3.03143657 6.03615206 1.51387699 3.42614267 0 0 Z " fill="#747CB9" transform="translate(170,234)"/>
<path d="M0 0 C2 3 2 3 3.125 5.4375 C5.74124357 9.01303288 8.99267111 10.29617133 13 12 C13 12.66 13 13.32 13 14 C11.35 14 9.7 14 8 14 C7.67 13.01 7.34 12.02 7 11 C6.071875 10.566875 6.071875 10.566875 5.125 10.125 C2.25160401 8.60379036 1.38250409 6.90325858 0 4 C0 2.68 0 1.36 0 0 Z " fill="#0C4F99" transform="translate(216,222)"/>
<path d="M0 0 C0.66 0 1.32 0 2 0 C1.91231752 1.5843317 1.80412671 3.16753567 1.6875 4.75 C1.62949219 5.63171875 1.57148438 6.5134375 1.51171875 7.421875 C0.9358819 10.32303774 -0.07596148 11.79225607 -2 14 C-3.35851319 7.70143885 -3.35851319 7.70143885 -1.5625 4.1875 C-1.046875 3.465625 -0.53125 2.74375 0 2 C0 1.34 0 0.68 0 0 Z " fill="#2187A0" transform="translate(243,209)"/>
<path d="M0 0 C1.32 0.99 2.64 1.98 4 3 C4.66 2.67 5.32 2.34 6 2 C6.66 2.66 7.32 3.32 8 4 C7.96712417 6.72869407 7.43602229 9.2966618 7 12 C6.34 12 5.68 12 5 12 C5 9.69 5 7.38 5 5 C4.01 5 3.02 5 2 5 C1.34 3.35 0.68 1.7 0 0 Z " fill="#0C26B1" transform="translate(159,206)"/>
<path d="M0 0 C3.25 0.0625 3.25 0.0625 7 1 C8.8544092 3.2231534 9.78559244 5.32830337 11 8 C6.40378078 6.5129879 3.53027653 4.20187872 0 1 C0 0.67 0 0.34 0 0 Z " fill="#95E4E1" transform="translate(285,303)"/>
<path d="M0 0 C0.33 0 0.66 0 1 0 C1 7.92 1 15.84 1 24 C0.67 24 0.34 24 0 24 C-0.06058594 23.39671875 -0.12117188 22.7934375 -0.18359375 22.171875 C-0.26738281 21.37265625 -0.35117187 20.5734375 -0.4375 19.75 C-0.51871094 18.96109375 -0.59992188 18.1721875 -0.68359375 17.359375 C-0.97634993 15.17635361 -1.42064419 13.1226818 -2 11 C-1.34 11 -0.68 11 0 11 C0 7.37 0 3.74 0 0 Z " fill="#2AC6CD" transform="translate(308,248)"/>
<path d="M0 0 C0.66 0.66 1.32 1.32 2 2 C1.01 2.495 1.01 2.495 0 3 C-0.28875 3.78375 -0.5775 4.5675 -0.875 5.375 C-2.13500471 8.31501099 -3.33889875 9.31463588 -6 11 C-5.125 5.25 -5.125 5.25 -4 3 C-3.34 3 -2.68 3 -2 3 C-2 2.34 -2 1.68 -2 1 C-1.34 0.67 -0.68 0.34 0 0 Z " fill="#1A52C3" transform="translate(198,215)"/>
<path d="M0 0 C0.66 0.33 1.32 0.66 2 1 C1.67 6.28 1.34 11.56 1 17 C0.34 16.67 -0.32 16.34 -1 16 C-1.02692484 13.70839681 -1.04636124 11.41670454 -1.0625 9.125 C-1.07410156 7.84882813 -1.08570312 6.57265625 -1.09765625 5.2578125 C-1 2 -1 2 0 0 Z " fill="#0E199C" transform="translate(99,158)"/>
<path d="M0 0 C4.75416122 0.49493467 7.55220583 1.72123406 11.375 4.5625 C12.24898438 5.20316406 13.12296875 5.84382812 14.0234375 6.50390625 C14.67570312 6.99761719 15.32796875 7.49132812 16 8 C15.01 8.33 14.02 8.66 13 9 C12.34 8.67 11.68 8.34 11 8 C11 7.34 11 6.68 11 6 C9.948125 5.5978125 9.948125 5.5978125 8.875 5.1875 C5.8350176 3.9318551 2.9272226 2.49764877 0 1 C0 0.67 0 0.34 0 0 Z " fill="#5CD2D0" transform="translate(284,129)"/>
<path d="M0 0 C0.66 0.33 1.32 0.66 2 1 C2 1.99 2 2.98 2 4 C0.68 4.33 -0.64 4.66 -2 5 C-2 5.66 -2 6.32 -2 7 C-3.65 7.33 -5.3 7.66 -7 8 C-7 7.34 -7 6.68 -7 6 C-6.34 6 -5.68 6 -5 6 C-5 5.34 -5 4.68 -5 4 C-3.37373596 2.61767557 -1.7074998 1.28062485 0 0 Z " fill="#1671E3" transform="translate(127,292)"/>
<path d="M0 0 C0.66 0 1.32 0 2 0 C4.125 4.625 4.125 4.625 3 8 C1.68 8 0.36 8 -1 8 C-1.125 2.25 -1.125 2.25 0 0 Z " fill="#186BCC" transform="translate(203,200)"/>
<path d="M0 0 C-3.19990508 2.74277578 -6.00499382 4.6302836 -10 6 C-7.83322503 -0.036016 -6.28508493 -0.13663228 0 0 Z " fill="#628FCF" transform="translate(124,128)"/>
<path d="M0 0 C0.33 0 0.66 0 1 0 C2.905247 5.10334017 4.42589023 9.46342706 4 15 C-0.03854121 9.9079263 -0.10306393 6.28689984 0 0 Z " fill="#89D9D6" transform="translate(266,275)"/>
<path d="M0 0 C0.33 0 0.66 0 1 0 C1.36541918 4.26322371 0.49759276 6.54179464 -2 10 C-2.99 10.495 -2.99 10.495 -4 11 C-4.1875 8.6875 -4.1875 8.6875 -4 6 C-2.5625 4.375 -2.5625 4.375 -1 3 C-0.67 2.01 -0.34 1.02 0 0 Z " fill="#173DB4" transform="translate(191,224)"/>
<path d="M0 0 C7.45937249 0.61142397 7.45937249 0.61142397 10 2.4375 C11 4 11 4 11 6 C6.49197399 4.74194623 3.5087188 3.09592835 0 0 Z " fill="#97E4E2" transform="translate(296,311)"/>
<path d="M0 0 C0.66 0.66 1.32 1.32 2 2 C0.38684964 4.63198216 -0.4078521 5.83298393 -3.4375 6.6875 C-4.283125 6.790625 -5.12875 6.89375 -6 7 C-7.33542939 7.32483418 -8.66961551 7.6550855 -10 8 C-8.25 5.9375 -8.25 5.9375 -6 4 C-3.75 4.25 -3.75 4.25 -2 5 C-1.34 3.35 -0.68 1.7 0 0 Z " fill="#1223AA" transform="translate(225,240)"/>
<path d="M0 0 C0.66 0 1.32 0 2 0 C2.33 0.99 2.66 1.98 3 3 C0.82575883 5.50037734 -0.73045798 6.43628586 -4 7 C-4 5.68 -4 4.36 -4 3 C-3.01 3 -2.02 3 -1 3 C-0.67 2.01 -0.34 1.02 0 0 Z " fill="#28D8DC" transform="translate(238,138)"/>
<path d="M0 0 C-2.64 1.98 -5.28 3.96 -8 6 C-8.66 5.67 -9.32 5.34 -10 5 C-8.94958421 2.13522966 -8.29875437 1.16086774 -5.5625 -0.3125 C-3 -1 -3 -1 0 0 Z " fill="#7FA9DC" transform="translate(121,305)"/>
<path d="M0 0 C0.66 0 1.32 0 2 0 C2 3.3 2 6.6 2 10 C1.34 8.68 0.68 7.36 0 6 C-0.99 6.99 -1.98 7.98 -3 9 C-2.44271087 5.65626525 -1.64826111 2.96687001 0 0 Z " fill="#B0DBE2" transform="translate(263,178)"/>
<path d="M0 0 C0.66 0 1.32 0 2 0 C2 0.66 2 1.32 2 2 C2.66 2 3.32 2 4 2 C8 6.47058824 8 6.47058824 8 9 C7.01 8.67 6.02 8.34 5 8 C5 7.34 5 6.68 5 6 C4.360625 5.7525 3.72125 5.505 3.0625 5.25 C1 4 1 4 0.25 1.875 C0.1675 1.25625 0.085 0.6375 0 0 Z " fill="#2364D3" transform="translate(122,140)"/>
<path d="M0 0 C0.99 0.66 1.98 1.32 3 2 C2.34 2.66 1.68 3.32 1 4 C0.35232207 6.57061311 0.35232207 6.57061311 0 9 C-0.66 9 -1.32 9 -2 9 C-2.33 10.32 -2.66 11.64 -3 13 C-2.52060632 8.28596212 -2.03165952 4.33420699 0 0 Z " fill="#111465" transform="translate(102,142)"/>
<path d="M0 0 C1.98 0.66 3.96 1.32 6 2 C6 2.66 6 3.32 6 4 C6.66 4 7.32 4 8 4 C7.67 4.66 7.34 5.32 7 6 C4.36 5.01 1.72 4.02 -1 3 C-0.67 2.01 -0.34 1.02 0 0 Z " fill="#0C4A6F" transform="translate(297,139)"/>
<path d="M0 0 C1.11375 0.3403125 1.11375 0.3403125 2.25 0.6875 C-2.5 4.5625 -2.5 4.5625 -4.75 5.6875 C-5.41 5.3575 -6.07 5.0275 -6.75 4.6875 C-6.75 2.6875 -6.75 2.6875 -5.0625 1 C-2.75 -0.3125 -2.75 -0.3125 0 0 Z " fill="#39D6D9" transform="translate(288.75,137.3125)"/>
<path d="M0 0 C1.39460991 2.78921982 0.58060045 4.12077103 -0.3125 7.0625 C-0.57675781 7.96097656 -0.84101563 8.85945313 -1.11328125 9.78515625 C-2 12 -2 12 -4 13 C-3.50269348 8.02693484 -2.44697666 4.36200187 0 0 Z " fill="#628FCF" transform="translate(140,278)"/>
<path d="M0 0 C0.66 0 1.32 0 2 0 C4 3 4 3 4 6 C4.66 6 5.32 6 6 6 C6 7.65 6 9.3 6 11 C3 7.25 3 7.25 3 5 C2.34 5 1.68 5 1 5 C0.67 3.35 0.34 1.7 0 0 Z " fill="#085793" transform="translate(210,211)"/>
<path d="M0 0 C1.76462683 3.08809695 2 4.23312136 2 8 C1.01 8.495 1.01 8.495 0 9 C-1.3950848 6.70221327 -2.07438619 5.5207033 -1.6875 2.8125 C-1 1 -1 1 0 0 Z " fill="#0F3CB6" transform="translate(194,185)"/>
<path d="M0 0 C0 0.66 0 1.32 0 2 C0.66 2.33 1.32 2.66 2 3 C1.01 3 0.02 3 -1 3 C-1 3.66 -1 4.32 -1 5 C-1.99 5 -2.98 5 -4 5 C-4.33 4.01 -4.66 3.02 -5 2 C-2 0 -2 0 0 0 Z " fill="#0F2AB9" transform="translate(185,238)"/>
<path d="M0 0 C0.99 0 1.98 0 3 0 C2.55090939 1.48199902 2.09043436 2.96055236 1.625 4.4375 C1.36976563 5.26121094 1.11453125 6.08492187 0.8515625 6.93359375 C0 9 0 9 -2 10 C-1.34 6.7 -0.68 3.4 0 0 Z " fill="#9CD3DA" transform="translate(257,187)"/>
<path d="M0 0 C1.65 0 3.3 0 5 0 C2.47043472 3.0916909 -0.22454612 3.90931332 -4 5 C-3.67 4.01 -3.34 3.02 -3 2 C-2.01 2 -1.02 2 0 2 C0 1.34 0 0.68 0 0 Z " fill="#83ADD7" transform="translate(106,311)"/>
<path d="M0 0 C0.33 0.66 0.66 1.32 1 2 C1.99 2 2.98 2 4 2 C4 4.64 4 7.28 4 10 C0 4 0 4 0 0 Z " fill="#1B2B95" transform="translate(160,209)"/>
<path d="M0 0 C0.66 0.33 1.32 0.66 2 1 C2.26218749 4.14624993 2.24754367 5.61837017 0.5 8.3125 C-0.2425 9.1478125 -0.2425 9.1478125 -1 10 C-1.125 3.375 -1.125 3.375 0 0 Z " fill="#1692AA" transform="translate(268,200)"/>
<path d="M0 0 C0.66 0 1.32 0 2 0 C2 0.99 2 1.98 2 3 C2.99 2.67 3.98 2.34 5 2 C5 4.31 5 6.62 5 9 C1.7457985 6.16569547 0.4793247 4.31392226 0 0 Z " fill="#167FA0" transform="translate(210,196)"/>
<path d="M0 0 C0.66 0 1.32 0 2 0 C2.99 2.97 3.98 5.94 5 9 C4.34 9 3.68 9 3 9 C0 4.5 0 4.5 0 0 Z " fill="#8BA6B5" transform="translate(304,141)"/>
<path d="M0 0 C0.33 0.66 0.66 1.32 1 2 C3.02463255 2.65213292 3.02463255 2.65213292 5 3 C5 3.99 5 4.98 5 6 C3.68 5.67 2.36 5.34 1 5 C0.67 3.35 0.34 1.7 0 0 Z " fill="#5A79BA" transform="translate(189,172)"/>
<path d="M0 0 C0.99 0.33 1.98 0.66 3 1 C1.71475739 1.86380259 0.42157581 2.71580369 -0.875 3.5625 C-1.59429687 4.03816406 -2.31359375 4.51382813 -3.0546875 5.00390625 C-3.69664062 5.33261719 -4.33859375 5.66132813 -5 6 C-5.66 5.67 -6.32 5.34 -7 5 C-5.90554162 4.13342884 -4.79902219 3.28207276 -3.6875 2.4375 C-3.07261719 1.96183594 -2.45773437 1.48617187 -1.82421875 0.99609375 C-1.22222656 0.66738281 -0.62023437 0.33867187 0 0 Z " fill="#0B628A" transform="translate(293,160)"/>
<path d="M0 0 C0.33 1.32 0.66 2.64 1 4 C2.65 4 4.3 4 6 4 C5.67 4.66 5.34 5.32 5 6 C2.4375 6.625 2.4375 6.625 0 7 C0 4.69 0 2.38 0 0 Z " fill="#3872B9" transform="translate(97,310)"/>
<path d="M0 0 C0.66 0 1.32 0 2 0 C2.66 1.98 3.32 3.96 4 6 C3.01 6 2.02 6 1 6 C1 5.34 1 4.68 1 4 C0.01 4 -0.98 4 -2 4 C-1 1 -1 1 0 0 Z " fill="#303185" transform="translate(171,230)"/>
<path d="M0 0 C1.2077558 3.62326739 0.54311128 4.64146369 -1 8 C-2.32 7.67 -3.64 7.34 -5 7 C-3.35 4.69 -1.7 2.38 0 0 Z " fill="#2F94A5" transform="translate(250,201)"/>
<path d="M0 0 C0.99 0.33 1.98 0.66 3 1 C3.6875 3.0625 3.6875 3.0625 4 5 C3.01 5.33 2.02 5.66 1 6 C-0.0625 4.125 -0.0625 4.125 -1 2 C-0.67 1.34 -0.34 0.68 0 0 Z " fill="#2256B2" transform="translate(186,167)"/>
</svg>
